<svg xmlns="http://www.w3.org/2000/svg" xmlns:xlink="http://www.w3.org/1999/xlink" version="1.1" x="0px" y="0px" viewBox="0 0 100 125" enable-background="new 0 0 100 100" xml:space="preserve"><g><g><circle cx="50" cy="36.579" r="1.874"/><path d="M39.589,28.412H33.89c-0.553,0-1,0.448-1,1s0.447,1,1,1h5.699c0.553,0,1-0.448,1-1S40.142,28.412,39.589,28.412z"/><path d="M60.412,30.412h5.699c0.553,0,1-0.448,1-1s-0.447-1-1-1h-5.699c-0.553,0-1,0.448-1,1S59.859,30.412,60.412,30.412z"/><path d="M37.884,58.115c0-4.419-3.596-8.014-8.015-8.014s-8.014,3.595-8.014,8.014c0,4.419,3.595,8.015,8.014,8.015    S37.884,62.535,37.884,58.115z M29.869,64.13c-3.316,0-6.014-2.698-6.014-6.015c0-3.316,2.697-6.014,6.014-6.014    s6.015,2.698,6.015,6.014C35.884,61.432,33.186,64.13,29.869,64.13z"/><path d="M37.146,66.312c-2.485,0-4.507,2.022-4.507,4.508c0,2.485,2.021,4.507,4.507,4.507s4.507-2.022,4.507-4.507    C41.652,68.333,39.631,66.312,37.146,66.312z M37.146,73.326c-1.382,0-2.507-1.125-2.507-2.507c0-1.383,1.125-2.508,2.507-2.508    s2.507,1.125,2.507,2.508C39.652,72.202,38.527,73.326,37.146,73.326z"/><path d="M29.869,54.715c-1.875,0-3.4,1.526-3.4,3.401s1.525,3.401,3.4,3.401c1.876,0,3.401-1.526,3.401-3.401    S31.745,54.715,29.869,54.715z M29.869,59.518c-0.772,0-1.4-0.628-1.4-1.401s0.628-1.401,1.4-1.401s1.401,0.628,1.401,1.401    S30.642,59.518,29.869,59.518z"/><path d="M77.148,39.16c-3.218,0-6.319,0.861-9.027,2.421v-3.883h2.283c0.483,0,0.898-0.346,0.984-0.822l2.634-14.572    c0.053-0.292-0.027-0.591-0.217-0.819c-0.19-0.228-0.472-0.359-0.768-0.359H57.235l0.27-2.98c0.025-0.28-0.068-0.557-0.258-0.765    c-0.189-0.207-0.457-0.325-0.738-0.325H43.493c-0.281,0-0.549,0.118-0.738,0.325c-0.189,0.208-0.283,0.485-0.258,0.765l0.27,2.98    H26.962c-0.296,0-0.577,0.131-0.768,0.359c-0.189,0.228-0.27,0.527-0.217,0.819l2.635,14.572c0.086,0.476,0.501,0.822,0.984,0.822    h2.282v3.884c-2.709-1.561-5.811-2.422-9.028-2.422c-9.979,0-18.097,8.119-18.097,18.098c0,8.261,5.668,15.479,13.591,17.514    v6.447c0,0.475,0.334,0.885,0.8,0.98c0.149,0.03,3.708,0.746,8.295,0.746c0.001,0,0.001,0,0.002,0    c5.333,0,9.719-0.95,13.036-2.822c4.676-2.64,7.047-6.994,7.047-12.943v-5.775h4.95v5.775c0,10.167,7.133,15.765,20.085,15.765    c4.587,0,8.146-0.716,8.295-0.746c0.466-0.095,0.8-0.505,0.8-0.98v-6.447c7.923-2.034,13.592-9.252,13.592-17.514    C95.246,47.279,87.128,39.16,77.148,39.16z M71.841,23.126l-2.272,12.572H55.92l1.135-12.572H71.841z M55.415,19.056L53.826,36.69    c0,0.003-0.002,0.005-0.002,0.008c0,0.001,0.001,0.002,0.001,0.003l-0.072,0.798c0,2.069-1.684,3.752-3.753,3.752    c-2.068,0-3.752-1.683-3.756-3.842l-1.656-18.354H55.415z M28.159,23.126h14.788l1.138,12.572H30.432L28.159,23.126z     M33.879,37.698h10.379c0.106,3.079,2.638,5.553,5.742,5.553c3.134,0,5.687-2.52,5.743-5.553h10.378v5.215    c-1.349,1.037-2.556,2.272-3.583,3.677h-9.063c-0.553,0-1,0.448-1,1v4.863h-4.95v-4.863c0-0.552-0.447-1-1-1h-9.062    c-1.027-1.405-2.234-2.64-3.583-3.677V37.698z M6.754,57.258c0-8.876,7.221-16.098,16.097-16.098c3.388,0,6.632,1.069,9.32,2.979    c0.002,0.001,0.004,0.002,0.005,0.003c0.993,0.706,1.913,1.523,2.731,2.449H19.345c-0.553,0-1,0.448-1,1v25.121    C11.558,70.735,6.754,64.435,6.754,57.258z M45.524,67.18c0,5.174-2.028,8.942-6.03,11.201c-3.014,1.701-7.068,2.564-12.053,2.564    c0,0-0.001,0-0.002,0c-3.136,0-5.816-0.359-7.095-0.565v-6.072c0.011-0.034,0.031-0.062,0.039-0.099    c0.035-0.172,0.011-0.338-0.039-0.495V48.591h25.18V67.18z M47.524,59.404v-4.95h4.95v4.95H47.524z M72.56,80.945    c-8.25,0-18.085-2.388-18.085-13.765V48.591h25.18v25.125c-0.049,0.156-0.073,0.321-0.038,0.493    c0.007,0.035,0.027,0.063,0.038,0.096v6.075C78.378,80.586,75.703,80.945,72.56,80.945z M81.654,72.712V47.591    c0-0.552-0.447-1-1-1H65.092c0.817-0.923,1.733-1.738,2.724-2.443c0.004-0.004,0.01-0.006,0.014-0.01    c2.688-1.909,5.933-2.978,9.319-2.978c8.876,0,16.098,7.221,16.098,16.098C93.246,64.435,88.442,70.735,81.654,72.712z"/><path d="M70.13,50.102c-4.419,0-8.014,3.595-8.014,8.014c0,4.419,3.595,8.015,8.014,8.015s8.015-3.595,8.015-8.015    C78.145,53.696,74.549,50.102,70.13,50.102z M70.13,64.13c-3.316,0-6.014-2.698-6.014-6.015c0-3.316,2.697-6.014,6.014-6.014    s6.015,2.698,6.015,6.014C76.145,61.432,73.446,64.13,70.13,64.13z"/><path d="M70.13,54.714c-1.875,0-3.4,1.526-3.4,3.401s1.525,3.401,3.4,3.401c1.876,0,3.401-1.526,3.401-3.401    S72.006,54.714,70.13,54.714z M70.13,59.517c-0.772,0-1.4-0.628-1.4-1.401s0.628-1.401,1.4-1.401s1.401,0.628,1.401,1.401    S70.902,59.517,70.13,59.517z"/><path d="M62.854,66.312c-2.485,0-4.507,2.022-4.507,4.508c0,2.485,2.021,4.507,4.507,4.507s4.507-2.022,4.507-4.507    C67.36,68.333,65.339,66.312,62.854,66.312z M62.854,73.326c-1.382,0-2.507-1.125-2.507-2.507c0-1.383,1.125-2.508,2.507-2.508    s2.507,1.125,2.507,2.508C65.36,72.202,64.235,73.326,62.854,73.326z"/></g></g><text x="0" y="115" fill="#000000" font-size="5px" font-weight="bold" font-family="'Helvetica Neue', Helvetica, Arial-Unicode, Arial, Sans-serif">Created by Linseed Studio</text><text x="0" y="120" fill="#000000" font-size="5px" font-weight="bold" font-family="'Helvetica Neue', Helvetica, Arial-Unicode, Arial, Sans-serif">from the Noun Project</text></svg>